<svg width="25" height="25" viewBox="0 0 25 25" fill="none" xmlns="http://www.w3.org/2000/svg">
<path d="M10.8134 1.67959V22.7961C10.8134 23.1779 10.6815 23.5441 10.4468 23.8141C10.2121 24.0841 9.89379 24.2358 9.56186 24.2358H1.26223C0.931896 24.2348 0.615322 24.0835 0.38164 23.8149C0.147958 23.5464 0.0161546 23.1823 0.0150146 22.8023V10.0393C0.015072 9.81198 0.0618657 9.58795 0.151573 9.38545C0.24128 9.18295 0.371356 9.00774 0.531177 8.87412L8.82757 0.51321C9.0144 0.357503 9.23501 0.26423 9.46503 0.243696C9.69505 0.223162 9.92553 0.276167 10.131 0.396853C10.3365 0.51754 10.509 0.701212 10.6294 0.92758C10.7498 1.15395 10.8135 1.4142 10.8134 1.67959Z" fill="black"/>
<path d="M24.0114 9.53323C24.0114 9.93226 23.8649 10.3149 23.6041 10.5971C23.3433 10.8792 22.9896 11.0378 22.6208 11.0378H14.5988C14.2307 11.0367 13.8781 10.8777 13.6183 10.5956C13.3584 10.3136 13.2127 9.93147 13.213 9.53323V1.74449C13.2129 1.46714 13.2837 1.19516 13.4175 0.95859C13.5513 0.722022 13.7429 0.530074 13.9712 0.40395C14.1995 0.277825 14.4556 0.222432 14.7112 0.243891C14.9668 0.26535 15.2119 0.362826 15.4195 0.52555L23.4367 8.32208C23.6138 8.4608 23.7582 8.64278 23.858 8.85323C23.9579 9.06368 24.0104 9.29667 24.0114 9.53323Z" fill="black"/>
<path d="M22.6244 13.5022H14.6072C13.8392 13.5022 13.2166 14.1248 13.2166 14.8928V22.91C13.2166 23.678 13.8392 24.3006 14.6072 24.3006H22.6244C23.3924 24.3006 24.015 23.678 24.015 22.91V14.8928C24.015 14.1248 23.3924 13.5022 22.6244 13.5022Z" fill="black"/>
</svg>